<svg xmlns="http://www.w3.org/2000/svg" version="1.1" xmlns:xlink="http://www.w3.org/1999/xlink" xmlns:svgjs="http://svgjs.com/svgjs" width="1440" height="400" preserveAspectRatio="none" viewBox="0 0 1440 400"><g mask="url(&quot;#SvgjsMask1063&quot;)" fill="none"><rect width="1440" height="400" x="0" y="0" fill="rgba(244, 244, 244, 1)"></rect><path d="M0,465.826C113.532,482.921,225.673,558.598,333.303,518.629C444.272,477.42,517.641,366.433,562.566,256.915C606.571,149.64,601.303,30.596,580.27,-83.43C559.858,-194.092,522.159,-303.754,444.183,-384.887C368.19,-463.956,260.308,-497.326,154.559,-526.378C50.414,-554.989,-55.613,-570.555,-161.904,-551.394C-276.947,-530.655,-403.392,-504.086,-476.24,-412.664C-548.542,-321.927,-534.326,-193.471,-539.467,-77.564C-544.141,27.812,-553.803,137.13,-504.769,230.52C-456.881,321.726,-367.855,383.586,-274.487,427.111C-189.007,466.959,-93.261,451.783,0,465.826" fill="#d4d4d4"></path><path d="M1440 880.252C1538.59 878.856 1648.107 905.927 1728.029 848.182 1807.46 790.7919999999999 1811.109 677.072 1847.27 585.994 1881.337 500.192 1933.462 421.262 1934.185 328.947 1934.9769999999999 227.816 1919.579 118.22300000000001 1851.52 43.416 1783.857-30.954999999999984 1674.811-44 1576.35-64.36399999999998 1484.897-83.27800000000002 1392.794-91.781 1301.922-70.25 1207.468-47.870000000000005 1121.454-3.2549999999999955 1048.4479999999999 60.71800000000002 967.1759999999999 131.93400000000003 868.755 208.928 860.377 316.663 852.015 424.191 956.136 502.61400000000003 1006.675 597.893 1053.546 686.256 1062.877 801.806 1146.681 856.413 1230.567 911.0740000000001 1339.887 881.6700000000001 1440 880.252" fill="#ffffff"></path></g><defs><mask id="SvgjsMask1063"><rect width="1440" height="400" fill="#ffffff"></rect></mask></defs></svg>