<svg xmlns="http://www.w3.org/2000/svg" version="1.1" xmlns:xlink="http://www.w3.org/1999/xlink" xmlns:svgjs="http://svgjs.com/svgjs" width="1440" height="500" preserveAspectRatio="none" viewBox="0 0 1440 500"><g mask="url(&quot;#SvgjsMask1295&quot;)" fill="none"><rect width="1440" height="500" x="0" y="0" fill="rgba(63, 63, 245, 1)"></rect><g mask="url(&quot;#SvgjsMask1296&quot;)"><path d="M1379.5 294.5L1348.5 263.5L1317.5 263.5L1286.5 263.5M1224.5 325.5L1193.5 294.5L1162.5 294.5L1131.5 294.5L1100.5 294.5L1069.5 294.5L1038.5 294.5M1038.5 325.5L1007.5 356.5L976.5 356.5L945.5 356.5M1069.5 325.5L1038.5 356.5L1007.5 387.5L976.5 387.5L945.5 387.5M821.5 325.5L790.5 294.5L759.5 294.5L728.5 294.5M1410.5 263.5L1379.5 263.5M1255.5 294.5L1224.5 294.5L1193.5 263.5L1162.5 263.5L1131.5 263.5L1100.5 263.5L1069.5 263.5M1472.5 263.5L1441.5 263.5L1410.5 263.5L1379.5 294.5L1348.5 294.5L1317.5 294.5L1286.5 294.5L1255.5 294.5L1224.5 325.5L1193.5 325.5L1162.5 325.5L1131.5 325.5L1100.5 325.5L1069.5 325.5L1038.5 325.5L1007.5 325.5L976.5 325.5L945.5 325.5L914.5 325.5L883.5 325.5L852.5 325.5L821.5 325.5L790.5 325.5L759.5 325.5L728.5 325.5L697.5 325.5L666.5 325.5L635.5 356.5" stroke="rgba(11, 33, 56, 1)" stroke-width="5.17"></path><path d="M627.75 356.5 a7.75 7.75 0 1 0 15.5 0 a7.75 7.75 0 1 0 -15.5 0zM1278.75 263.5 a7.75 7.75 0 1 0 15.5 0 a7.75 7.75 0 1 0 -15.5 0zM1030.75 294.5 a7.75 7.75 0 1 0 15.5 0 a7.75 7.75 0 1 0 -15.5 0zM937.75 356.5 a7.75 7.75 0 1 0 15.5 0 a7.75 7.75 0 1 0 -15.5 0zM937.75 387.5 a7.75 7.75 0 1 0 15.5 0 a7.75 7.75 0 1 0 -15.5 0zM720.75 294.5 a7.75 7.75 0 1 0 15.5 0 a7.75 7.75 0 1 0 -15.5 0zM1371.75 263.5 a7.75 7.75 0 1 0 15.5 0 a7.75 7.75 0 1 0 -15.5 0zM1061.75 263.5 a7.75 7.75 0 1 0 15.5 0 a7.75 7.75 0 1 0 -15.5 0z" fill="rgba(11, 33, 56, 1)"></path><path d="M1255.5 201.5L1224.5 232.5M1193.5 201.5L1162.5 201.5L1131.5 201.5L1100.5 201.5M1286.5 232.5L1255.5 232.5L1224.5 263.5M1472.5 232.5L1441.5 232.5L1410.5 232.5L1379.5 232.5L1348.5 232.5L1317.5 232.5L1286.5 232.5L1255.5 201.5L1224.5 201.5L1193.5 201.5L1162.5 232.5L1131.5 232.5L1100.5 232.5L1069.5 232.5" stroke="rgba(11, 33, 56, 1)" stroke-width="5.17"></path><path d="M1061.75 232.5 a7.75 7.75 0 1 0 15.5 0 a7.75 7.75 0 1 0 -15.5 0zM1216.75 232.5 a7.75 7.75 0 1 0 15.5 0 a7.75 7.75 0 1 0 -15.5 0zM1092.75 201.5 a7.75 7.75 0 1 0 15.5 0 a7.75 7.75 0 1 0 -15.5 0zM1216.75 263.5 a7.75 7.75 0 1 0 15.5 0 a7.75 7.75 0 1 0 -15.5 0z" fill="rgba(11, 33, 56, 1)"></path><path d="M1348.5 325.5L1317.5 356.5L1286.5 356.5M1441.5 294.5L1410.5 325.5M1472.5 294.5L1441.5 294.5L1410.5 294.5L1379.5 325.5L1348.5 325.5L1317.5 325.5L1286.5 325.5L1255.5 325.5L1224.5 356.5L1193.5 356.5L1162.5 356.5" stroke="rgba(11, 33, 56, 1)" stroke-width="5.17"></path><path d="M1154.75 356.5 a7.75 7.75 0 1 0 15.5 0 a7.75 7.75 0 1 0 -15.5 0zM1278.75 356.5 a7.75 7.75 0 1 0 15.5 0 a7.75 7.75 0 1 0 -15.5 0zM1402.75 325.5 a7.75 7.75 0 1 0 15.5 0 a7.75 7.75 0 1 0 -15.5 0z" fill="rgba(11, 33, 56, 1)"></path><path d="M1379.5 201.5L1348.5 170.5L1317.5 170.5L1286.5 170.5M1069.5 170.5L1038.5 139.5L1007.5 139.5M976.5 170.5L945.5 170.5L914.5 170.5L883.5 170.5L852.5 170.5M1410.5 201.5L1379.5 170.5M1472.5 201.5L1441.5 201.5L1410.5 201.5L1379.5 201.5L1348.5 201.5L1317.5 201.5L1286.5 201.5L1255.5 170.5L1224.5 170.5L1193.5 170.5L1162.5 170.5L1131.5 170.5L1100.5 170.5L1069.5 170.5L1038.5 170.5L1007.5 170.5L976.5 170.5L945.5 139.5" stroke="rgba(11, 33, 56, 1)" stroke-width="5.17"></path><path d="M937.75 139.5 a7.75 7.75 0 1 0 15.5 0 a7.75 7.75 0 1 0 -15.5 0zM1278.75 170.5 a7.75 7.75 0 1 0 15.5 0 a7.75 7.75 0 1 0 -15.5 0zM999.75 139.5 a7.75 7.75 0 1 0 15.5 0 a7.75 7.75 0 1 0 -15.5 0zM844.75 170.5 a7.75 7.75 0 1 0 15.5 0 a7.75 7.75 0 1 0 -15.5 0zM1371.75 170.5 a7.75 7.75 0 1 0 15.5 0 a7.75 7.75 0 1 0 -15.5 0z" fill="rgba(11, 33, 56, 1)"></path><path d="M1193.5 139.5L1162.5 108.5L1131.5 108.5L1100.5 77.5M1441.5 170.5L1410.5 170.5M1472.5 170.5L1441.5 170.5L1410.5 139.5L1379.5 139.5L1348.5 139.5L1317.5 139.5L1286.5 139.5L1255.5 139.5L1224.5 139.5L1193.5 139.5L1162.5 139.5" stroke="rgba(11, 33, 56, 1)" stroke-width="5.17"></path><path d="M1154.75 139.5 a7.75 7.75 0 1 0 15.5 0 a7.75 7.75 0 1 0 -15.5 0zM1092.75 77.5 a7.75 7.75 0 1 0 15.5 0 a7.75 7.75 0 1 0 -15.5 0zM1402.75 170.5 a7.75 7.75 0 1 0 15.5 0 a7.75 7.75 0 1 0 -15.5 0z" fill="rgba(11, 33, 56, 1)"></path><path d="M1255.5 387.5L1224.5 418.5L1193.5 418.5L1162.5 418.5L1131.5 418.5M1410.5 356.5L1379.5 387.5L1348.5 418.5M1286.5 387.5L1255.5 418.5M1472.5 356.5L1441.5 356.5L1410.5 356.5L1379.5 356.5L1348.5 387.5L1317.5 387.5L1286.5 387.5L1255.5 387.5L1224.5 387.5L1193.5 387.5L1162.5 387.5L1131.5 387.5L1100.5 387.5" stroke="rgba(11, 33, 56, 1)" stroke-width="5.17"></path><path d="M1092.75 387.5 a7.75 7.75 0 1 0 15.5 0 a7.75 7.75 0 1 0 -15.5 0zM1123.75 418.5 a7.75 7.75 0 1 0 15.5 0 a7.75 7.75 0 1 0 -15.5 0zM1340.75 418.5 a7.75 7.75 0 1 0 15.5 0 a7.75 7.75 0 1 0 -15.5 0zM1247.75 418.5 a7.75 7.75 0 1 0 15.5 0 a7.75 7.75 0 1 0 -15.5 0z" fill="rgba(11, 33, 56, 1)"></path><path d="M1410.5 108.5L1379.5 77.5L1348.5 77.5L1317.5 77.5M1255.5 108.5L1224.5 77.5L1193.5 77.5M1286.5 108.5L1255.5 77.5M1472.5 139.5L1441.5 139.5L1410.5 108.5L1379.5 108.5L1348.5 108.5L1317.5 108.5L1286.5 108.5L1255.5 108.5L1224.5 108.5" stroke="rgba(11, 33, 56, 1)" stroke-width="5.17"></path><path d="M1216.75 108.5 a7.75 7.75 0 1 0 15.5 0 a7.75 7.75 0 1 0 -15.5 0zM1309.75 77.5 a7.75 7.75 0 1 0 15.5 0 a7.75 7.75 0 1 0 -15.5 0zM1185.75 77.5 a7.75 7.75 0 1 0 15.5 0 a7.75 7.75 0 1 0 -15.5 0zM1247.75 77.5 a7.75 7.75 0 1 0 15.5 0 a7.75 7.75 0 1 0 -15.5 0z" fill="rgba(11, 33, 56, 1)"></path></g></g><defs><mask id="SvgjsMask1295"><rect width="1440" height="500" fill="#ffffff"></rect></mask><mask id="SvgjsMask1296"><rect width="1440" height="500" fill="white"></rect><path d="M631.62 356.5 a3.88 3.88 0 1 0 7.76 0 a3.88 3.88 0 1 0 -7.76 0zM1282.62 263.5 a3.88 3.88 0 1 0 7.76 0 a3.88 3.88 0 1 0 -7.76 0zM1034.62 294.5 a3.88 3.88 0 1 0 7.76 0 a3.88 3.88 0 1 0 -7.76 0zM941.62 356.5 a3.88 3.88 0 1 0 7.76 0 a3.88 3.88 0 1 0 -7.76 0zM941.62 387.5 a3.88 3.88 0 1 0 7.76 0 a3.88 3.88 0 1 0 -7.76 0zM724.62 294.5 a3.88 3.88 0 1 0 7.76 0 a3.88 3.88 0 1 0 -7.76 0zM1375.62 263.5 a3.88 3.88 0 1 0 7.76 0 a3.88 3.88 0 1 0 -7.76 0zM1065.62 263.5 a3.88 3.88 0 1 0 7.76 0 a3.88 3.88 0 1 0 -7.76 0z" fill="black"></path><path d="M1065.62 232.5 a3.88 3.88 0 1 0 7.76 0 a3.88 3.88 0 1 0 -7.76 0zM1220.62 232.5 a3.88 3.88 0 1 0 7.76 0 a3.88 3.88 0 1 0 -7.76 0zM1096.62 201.5 a3.88 3.88 0 1 0 7.76 0 a3.88 3.88 0 1 0 -7.76 0zM1220.62 263.5 a3.88 3.88 0 1 0 7.76 0 a3.88 3.88 0 1 0 -7.76 0z" fill="black"></path><path d="M1158.62 356.5 a3.88 3.88 0 1 0 7.76 0 a3.88 3.88 0 1 0 -7.76 0zM1282.62 356.5 a3.88 3.88 0 1 0 7.76 0 a3.88 3.88 0 1 0 -7.76 0zM1406.62 325.5 a3.88 3.88 0 1 0 7.76 0 a3.88 3.88 0 1 0 -7.76 0z" fill="black"></path><path d="M941.62 139.5 a3.88 3.88 0 1 0 7.76 0 a3.88 3.88 0 1 0 -7.76 0zM1282.62 170.5 a3.88 3.88 0 1 0 7.76 0 a3.88 3.88 0 1 0 -7.76 0zM1003.62 139.5 a3.88 3.88 0 1 0 7.76 0 a3.88 3.88 0 1 0 -7.76 0zM848.62 170.5 a3.88 3.88 0 1 0 7.76 0 a3.88 3.88 0 1 0 -7.76 0zM1375.62 170.5 a3.88 3.88 0 1 0 7.76 0 a3.88 3.88 0 1 0 -7.76 0z" fill="black"></path><path d="M1158.62 139.5 a3.88 3.88 0 1 0 7.76 0 a3.88 3.88 0 1 0 -7.76 0zM1096.62 77.5 a3.88 3.88 0 1 0 7.76 0 a3.88 3.88 0 1 0 -7.76 0zM1406.62 170.5 a3.88 3.88 0 1 0 7.76 0 a3.88 3.88 0 1 0 -7.76 0z" fill="black"></path><path d="M1096.62 387.5 a3.88 3.88 0 1 0 7.76 0 a3.88 3.88 0 1 0 -7.76 0zM1127.62 418.5 a3.88 3.88 0 1 0 7.76 0 a3.88 3.88 0 1 0 -7.76 0zM1344.62 418.5 a3.88 3.88 0 1 0 7.76 0 a3.88 3.88 0 1 0 -7.76 0zM1251.62 418.5 a3.88 3.88 0 1 0 7.76 0 a3.88 3.88 0 1 0 -7.76 0z" fill="black"></path><path d="M1220.62 108.5 a3.88 3.88 0 1 0 7.76 0 a3.88 3.88 0 1 0 -7.76 0zM1313.62 77.5 a3.88 3.88 0 1 0 7.76 0 a3.88 3.88 0 1 0 -7.76 0zM1189.62 77.5 a3.88 3.88 0 1 0 7.76 0 a3.88 3.88 0 1 0 -7.76 0zM1251.62 77.5 a3.88 3.88 0 1 0 7.76 0 a3.88 3.88 0 1 0 -7.76 0z" fill="black"></path></mask></defs></svg>